<?xml version="1.0" standalone="no"?>
<!DOCTYPE svg PUBLIC "-//W3C//DTD SVG 20010904//EN"
 "http://www.w3.org/TR/2001/REC-SVG-20010904/DTD/svg10.dtd">
<svg version="1.0" xmlns="http://www.w3.org/2000/svg"
 width="521.000000pt" height="521.000000pt" viewBox="0 0 521.000000 521.000000"
 preserveAspectRatio="xMidYMid meet">

<g transform="translate(0.000000,521.000000) scale(0.100000,-0.100000)"
fill="#000000" stroke="none">
<path d="M2585 4760 c3 -5 8 -10 11 -10 2 0 4 5 4 10 0 6 -5 10 -11 10 -5 0
-7 -4 -4 -10z"/>
<path d="M2750 4759 c0 -5 5 -7 10 -4 6 3 10 8 10 11 0 2 -4 4 -10 4 -5 0 -10
-5 -10 -11z"/>
<path d="M2190 4729 c0 -5 5 -7 10 -4 6 3 10 8 10 11 0 2 -4 4 -10 4 -5 0 -10
-5 -10 -11z"/>
<path d="M3146 4685 c4 -8 8 -15 10 -15 2 0 4 7 4 15 0 8 -4 15 -10 15 -5 0
-7 -7 -4 -15z"/>
<path d="M1910 4659 c0 -5 5 -7 10 -4 6 3 10 8 10 11 0 2 -4 4 -10 4 -5 0 -10
-5 -10 -11z"/>
<path d="M2492 4655 c-11 -12 -10 -15 3 -15 8 0 15 7 15 15 0 18 -2 18 -18 0z"/>
<path d="M2770 4655 c-8 -9 -8 -15 -2 -15 12 0 26 19 19 26 -2 2 -10 -2 -17
-11z"/>
<path d="M2389 4648 c7 -10 23 -17 35 -17 20 1 20 2 1 6 -11 3 -27 10 -35 17
-13 10 -13 9 -1 -6z"/>
<path d="M2667 4649 c7 -7 15 -10 18 -7 3 3 -2 9 -12 12 -14 6 -15 5 -6 -5z"/>
<path d="M3300 4649 c0 -5 5 -7 10 -4 6 3 10 8 10 11 0 2 -4 4 -10 4 -5 0 -10
-5 -10 -11z"/>
<path d="M2232 4625 c-11 -12 -10 -15 3 -15 8 0 15 7 15 15 0 18 -2 18 -18 0z"/>
<path d="M2920 4631 c0 -9 30 -24 36 -18 2 1 -6 8 -16 15 -11 7 -20 8 -20 3z"/>
<path d="M3040 4621 c0 -6 -17 -12 -37 -14 l-38 -4 43 -1 c31 -2 42 2 42 13 0
8 -2 15 -5 15 -3 0 -5 -4 -5 -9z"/>
<path d="M3417 4599 c4 -13 8 -18 11 -10 2 7 -1 18 -6 23 -8 8 -9 4 -5 -13z"/>
<path d="M2128 4598 c6 -6 18 -8 28 -6 14 3 12 5 -9 10 -19 3 -25 2 -19 -4z"/>
<path d="M1967 4556 c-4 -10 -1 -13 8 -9 8 3 12 9 9 14 -7 12 -11 11 -17 -5z"/>
<path d="M3202 4554 c10 -10 20 -16 22 -13 3 3 -5 11 -17 18 -21 13 -21 12 -5
-5z"/>
<path d="M3305 4551 c-6 -5 -21 -11 -35 -13 l-25 -4 28 -5 c21 -5 30 -2 38 12
11 21 8 24 -6 10z"/>
<path d="M3560 4539 c0 -5 5 -7 10 -4 6 3 10 8 10 11 0 2 -4 4 -10 4 -5 0 -10
-5 -10 -11z"/>
<path d="M1868 4518 c5 -5 16 -8 23 -6 8 3 3 7 -10 11 -17 4 -21 3 -13 -5z"/>
<path d="M3386 4515 c-9 -26 -7 -32 5 -12 6 10 9 21 6 23 -2 3 -7 -2 -11 -11z"/>
<path d="M3642 4421 c-17 -35 -31 -66 -29 -67 6 -6 68 109 65 120 -2 6 -18
-18 -36 -53z"/>
<path d="M1720 4455 c-11 -13 -10 -14 4 -9 9 3 16 10 16 15 0 13 -6 11 -20 -6z"/>
<path d="M3541 4440 c-17 -15 -19 -20 -7 -20 8 0 20 9 26 20 13 25 11 25 -19
0z"/>
<path d="M3760 4428 c-11 -18 -20 -37 -20 -43 0 -5 10 6 21 25 12 19 27 38 33
42 8 6 7 8 -2 8 -7 0 -21 -15 -32 -32z"/>
<path d="M2582 4403 c-26 -37 -74 -144 -67 -151 7 -8 8 -6 54 87 43 85 49 114
13 64z"/>
<path d="M1627 4409 c7 -7 15 -10 18 -7 3 3 -2 9 -12 12 -14 6 -15 5 -6 -5z"/>
<path d="M2371 4407 c-13 -17 -61 -153 -61 -176 0 -28 17 3 49 93 31 89 34
109 12 83z"/>
<path d="M2477 4406 c-20 -20 -72 -154 -64 -163 4 -3 9 -4 11 -2 8 10 75 173
72 176 -2 2 -10 -3 -19 -11z"/>
<path d="M2703 4413 c-12 -4 -93 -143 -93 -158 0 -3 4 -5 10 -3 11 4 111 168
102 167 -4 0 -12 -3 -19 -6z"/>
<path d="M2805 4394 c-35 -37 -99 -144 -91 -151 3 -4 7 -4 9 -2 2 2 29 42 61
88 58 85 68 116 21 65z"/>
<path d="M3805 4400 c-3 -5 1 -10 10 -10 9 0 13 5 10 10 -3 6 -8 10 -10 10 -2
0 -7 -4 -10 -10z"/>
<path d="M2261 4386 c-12 -14 -51 -140 -51 -163 0 -7 4 -13 8 -13 8 0 64 182
58 188 -2 1 -8 -4 -15 -12z"/>
<path d="M2933 4390 c-28 -11 -125 -139 -116 -153 4 -6 17 3 32 23 14 19 45
58 69 87 23 29 41 53 40 52 -2 0 -13 -4 -25 -9z"/>
<path d="M2152 4363 c-11 -21 -42 -153 -42 -179 0 -39 18 6 39 95 21 93 22
120 3 84z"/>
<path d="M3044 4370 c-29 -11 -136 -139 -128 -152 4 -6 18 4 33 23 14 19 48
58 75 87 27 28 47 52 45 51 -2 0 -14 -4 -25 -9z"/>
<path d="M3685 4330 c10 -11 20 -20 23 -20 3 0 -3 9 -13 20 -10 11 -20 20 -23
20 -3 0 3 -9 13 -20z"/>
<path d="M3907 4332 c3 -12 -10 -36 -36 -66 -23 -26 -41 -55 -40 -64 0 -14 2
-14 6 -2 3 8 23 36 44 61 38 46 48 72 30 83 -5 4 -7 -2 -4 -12z"/>
<path d="M1481 4317 c-13 -21 -12 -21 5 -5 10 10 16 20 13 22 -3 3 -11 -5 -18
-17z"/>
<path d="M2042 4323 c-9 -16 -32 -143 -32 -174 0 -10 3 -10 11 -2 12 12 43
182 35 190 -2 3 -9 -4 -14 -14z"/>
<path d="M3082 4285 c-63 -65 -75 -82 -64 -89 5 -3 42 28 82 69 57 57 69 74
52 72 -12 -1 -44 -24 -70 -52z"/>
<path d="M1268 4313 c7 -3 16 -2 19 1 4 3 -2 6 -13 5 -11 0 -14 -3 -6 -6z"/>
<path d="M3788 4303 c-14 -14 -22 -15 -43 -5 -35 16 -32 6 4 -12 28 -15 30
-14 45 9 19 29 17 32 -6 8z"/>
<path d="M3250 4299 c-31 -13 -141 -120 -134 -131 3 -5 38 21 77 58 40 37 81
70 92 75 12 5 14 8 5 8 -8 0 -26 -5 -40 -10z"/>
<path d="M1936 4292 c-11 -18 -19 -197 -8 -187 5 6 13 52 17 103 7 85 4 105
-9 84z"/>
<path d="M3999 4273 c-37 -44 -40 -55 -8 -25 38 34 57 39 79 20 12 -11 12 -10
1 5 -7 9 -23 17 -36 17 -12 0 -28 -8 -36 -17z"/>
<path d="M1388 4268 c5 -5 16 -8 23 -6 8 3 3 7 -10 11 -17 4 -21 3 -13 -5z"/>
<path d="M3281 4210 c-63 -53 -77 -68 -67 -77 3 -3 27 12 52 33 26 21 66 51
88 66 39 27 40 28 14 28 -18 0 -47 -17 -87 -50z"/>
<path d="M1830 4154 c0 -61 4 -93 10 -89 6 3 10 46 10 96 0 53 -4 89 -10 89
-6 0 -10 -39 -10 -96z"/>
<path d="M1738 4204 c-10 -9 -9 -115 0 -169 4 -22 10 -35 13 -30 9 14 -5 208
-13 199z"/>
<path d="M3372 4159 c-65 -46 -87 -69 -63 -69 4 0 28 15 52 33 68 51 101 70
134 78 29 7 28 7 -11 8 -33 1 -53 -8 -112 -50z"/>
<path d="M3891 4199 c-1 -8 6 -24 15 -35 15 -19 15 -19 6 1 -5 11 -12 27 -15
35 -5 13 -6 13 -6 -1z"/>
<path d="M4147 4189 c12 -12 24 -21 27 -18 2 2 -8 13 -22 23 l-27 19 22 -24z"/>
<path d="M1251 4137 l-34 -42 38 37 c22 21 37 39 34 42 -2 2 -19 -14 -38 -37z"/>
<path d="M3477 4118 c-68 -42 -93 -63 -80 -71 4 -3 43 17 87 43 43 27 92 50
110 52 27 3 26 4 -12 9 -38 4 -52 0 -105 -33z"/>
<path d="M4010 4145 c-13 -16 -49 -20 -66 -7 -5 4 -1 -1 9 -10 25 -23 29 -23
57 7 13 14 21 25 18 25 -3 0 -11 -7 -18 -15z"/>
<path d="M1645 4137 c-8 -19 -1 -165 9 -175 14 -13 16 11 8 99 -6 63 -11 88
-17 76z"/>
<path d="M4107 4120 c-10 -16 -27 -35 -37 -40 -11 -6 -27 -25 -36 -42 -12 -24
-3 -17 40 28 30 32 55 65 56 72 0 18 -4 15 -23 -18z"/>
<path d="M1549 4090 c-6 -16 17 -189 26 -198 13 -14 15 12 5 74 -20 117 -26
140 -31 124z"/>
<path d="M3556 4052 c-56 -28 -83 -48 -80 -57 4 -9 22 -3 69 24 91 53 141 68
168 51 20 -12 21 -12 9 2 -27 33 -77 27 -166 -20z"/>
<path d="M4202 4074 c-12 -8 -27 -25 -33 -37 -9 -17 -3 -14 23 11 36 34 56 39
78 20 12 -11 12 -10 1 5 -17 21 -40 22 -69 1z"/>
<path d="M3643 3994 c-52 -24 -73 -39 -73 -52 0 -16 10 -13 81 22 53 26 95 41
120 41 44 0 31 10 -21 17 -26 4 -54 -3 -107 -28z"/>
<path d="M1460 3996 c0 -42 30 -166 41 -166 12 0 12 1 -8 95 -17 84 -33 118
-33 71z"/>
<path d="M4091 4004 c0 -11 3 -14 6 -6 3 7 2 16 -1 19 -3 4 -6 -2 -5 -13z"/>
<path d="M4132 3944 l38 -39 27 29 c26 27 27 28 3 12 -32 -21 -33 -21 -72 11
-32 25 -32 25 4 -13z"/>
<path d="M3730 3929 c-41 -17 -79 -34 -84 -39 -13 -13 3 -33 17 -21 14 11 101
45 140 55 22 5 27 4 21 -6 -6 -10 -3 -9 9 1 11 9 17 10 17 2 0 -6 9 -11 20
-11 35 0 22 26 -19 38 -46 14 -31 17 -121 -19z"/>
<path d="M1377 3943 c-4 -6 4 -50 18 -97 14 -48 25 -89 25 -92 0 -3 4 -3 9 0
5 4 -2 45 -15 94 -31 112 -29 108 -37 95z"/>
<path d="M4305 3929 c-5 -13 -30 -37 -54 -54 -25 -17 -47 -37 -49 -45 -3 -7
13 1 34 18 21 18 50 40 63 50 13 10 22 26 20 36 -3 15 -5 14 -14 -5z"/>
<path d="M1020 3905 c-14 -8 -20 -14 -14 -15 5 0 19 7 30 15 24 18 16 19 -16
0z"/>
<path d="M3825 3870 c2 -4 -20 -14 -50 -24 -39 -12 -55 -22 -55 -35 0 -22 26
-58 36 -49 4 4 1 14 -5 22 -15 18 -1 26 75 49 38 11 55 12 63 4 8 -8 19 -8 41
0 21 8 30 8 33 -1 2 -6 8 -8 11 -4 16 14 -46 41 -99 43 -30 1 -52 -1 -50 -5z"/>
<path d="M1296 3862 c-3 -5 5 -40 18 -78 34 -97 37 -105 46 -99 7 5 -42 170
-54 182 -2 2 -7 0 -10 -5z"/>
<path d="M4400 3863 c-23 -9 -72 -45 -67 -50 3 -2 22 8 43 22 53 36 56 40 24
28z"/>
<path d="M805 3821 c-3 -5 -1 -12 5 -16 5 -3 10 1 10 9 0 18 -6 21 -15 7z"/>
<path d="M4395 3800 c-3 -5 1 -10 9 -10 9 0 16 5 16 10 0 6 -4 10 -9 10 -6 0
-13 -4 -16 -10z"/>
<path d="M3868 3777 c-62 -17 -78 -25 -78 -40 0 -14 4 -17 18 -12 63 27 104
37 157 39 42 1 59 -3 58 -11 -2 -7 4 -10 12 -7 21 8 9 23 -31 40 -41 17 -40
17 -136 -9z"/>
<path d="M913 3769 c-2 -23 3 -25 10 -4 4 8 3 16 -1 19 -4 3 -9 -4 -9 -15z"/>
<path d="M1223 3765 c8 -42 68 -172 74 -158 4 12 -54 161 -70 178 -6 6 -8 -1
-4 -20z"/>
<path d="M4357 3729 c-10 -6 -28 -9 -38 -6 -17 4 -18 3 -8 -9 15 -19 22 -18
50 6 26 21 24 25 -4 9z"/>
<path d="M880 3706 c-6 -8 -21 -17 -33 -19 -20 -4 -19 -4 3 -6 15 0 30 7 38
19 14 23 10 27 -8 6z"/>
<path d="M4460 3705 c0 -13 -20 -32 -60 -57 -33 -20 -60 -42 -60 -48 0 -6 9
-2 21 9 11 10 41 30 65 43 46 24 61 45 44 62 -7 7 -10 4 -10 -9z"/>
<path d="M3945 3699 c-22 -5 -49 -11 -60 -14 -12 -2 -21 -13 -22 -23 -1 -18 0
-18 40 -4 25 9 76 16 124 16 46 1 83 2 83 3 0 2 -16 10 -36 18 -40 17 -69 17
-129 4z"/>
<path d="M1150 3680 c0 -16 68 -148 80 -155 18 -11 11 13 -27 90 -34 68 -53
92 -53 65z"/>
<path d="M4010 3613 c-86 -13 -90 -14 -90 -32 0 -17 3 -18 38 -5 20 7 72 13
114 14 65 0 76 -2 72 -15 -5 -11 -2 -13 10 -9 24 9 20 22 -14 39 -27 14 -73
17 -130 8z"/>
<path d="M4513 3600 c-18 -11 -33 -23 -33 -26 0 -4 6 -2 13 4 7 7 29 18 48 26
19 9 27 15 19 16 -8 0 -30 -9 -47 -20z"/>
<path d="M1087 3603 c-6 -10 75 -157 93 -168 19 -11 10 9 -39 94 -27 46 -51
79 -54 74z"/>
<path d="M660 3570 c0 -5 5 -10 11 -10 5 0 7 5 4 10 -3 6 -8 10 -11 10 -2 0
-4 -4 -4 -10z"/>
<path d="M1644 3568 c-10 -15 1 -20 42 -16 l39 3 -37 12 c-24 7 -40 8 -44 1z"/>
<path d="M4545 3550 c3 -5 8 -10 11 -10 2 0 4 5 4 10 0 6 -5 10 -11 10 -5 0
-7 -4 -4 -10z"/>
<path d="M775 3540 c3 -5 8 -10 11 -10 2 0 4 5 4 10 0 6 -5 10 -11 10 -5 0 -7
-4 -4 -10z"/>
<path d="M1810 3530 c8 -5 20 -10 25 -10 6 0 3 5 -5 10 -8 5 -19 10 -25 10 -5
0 -3 -5 5 -10z"/>
<path d="M4030 3521 c-39 -5 -45 -10 -48 -31 -2 -20 -1 -22 7 -10 8 12 33 15
116 15 101 0 104 1 82 17 -23 18 -69 21 -157 9z"/>
<path d="M1030 3497 c0 -18 88 -147 101 -147 12 0 3 17 -51 99 -42 62 -50 71
-50 48z"/>
<path d="M4447 3474 c2 -7 13 -9 24 -7 30 8 30 18 -1 18 -16 0 -26 -5 -23 -11z"/>
<path d="M736 3455 c-11 -8 -15 -15 -9 -15 6 0 16 7 23 15 16 19 11 19 -14 0z"/>
<path d="M4593 3447 c-6 -13 -24 -27 -39 -31 -46 -12 -97 -36 -91 -43 4 -3 12
-1 19 4 7 6 37 18 66 28 52 17 68 32 60 56 -2 6 -9 0 -15 -14z"/>
<path d="M4030 3403 c0 -22 2 -25 10 -13 7 12 31 15 109 14 82 0 98 2 89 13
-7 9 -40 13 -109 13 l-99 0 0 -27z"/>
<path d="M976 3398 c22 -39 107 -148 116 -148 12 0 6 9 -55 93 -27 37 -54 67
-59 67 -5 0 -6 -6 -2 -12z"/>
<path d="M4515 3339 c-4 -6 -5 -12 -2 -15 2 -3 7 2 10 11 7 17 1 20 -8 4z"/>
<path d="M4604 3334 c-19 -15 -19 -15 1 -6 11 5 27 12 35 15 13 5 13 6 -1 6
-8 1 -24 -6 -35 -15z"/>
<path d="M4083 3323 c-1 -16 10 -18 95 -18 59 -1 107 -6 122 -14 21 -11 21 -9
-5 12 -35 30 -65 37 -149 37 -52 0 -62 -3 -63 -17z"/>
<path d="M666 3295 c4 -8 8 -15 10 -15 2 0 4 7 4 15 0 8 -4 15 -10 15 -5 0 -7
-7 -4 -15z"/>
<path d="M930 3299 c0 -18 114 -143 118 -131 4 12 -97 140 -110 141 -5 1 -8
-4 -8 -10z"/>
<path d="M4650 3285 c7 -9 15 -13 17 -11 7 7 -7 26 -19 26 -6 0 -6 -6 2 -15z"/>
<path d="M4120 3236 c0 -12 10 -16 43 -16 23 -1 72 -7 110 -14 64 -12 66 -12
52 4 -10 11 -38 20 -73 24 -31 4 -74 9 -94 12 -30 5 -38 3 -38 -10z"/>
<path d="M4549 3227 c7 -7 18 -7 33 0 20 9 20 10 -10 10 -22 0 -29 -4 -23 -10z"/>
<path d="M642 3204 c-7 -8 -8 -14 -3 -14 10 0 25 19 20 25 -2 1 -10 -3 -17
-11z"/>
<path d="M887 3203 c-3 -5 28 -43 68 -83 41 -41 75 -68 75 -59 0 19 -136 154
-143 142z"/>
<path d="M4680 3180 c0 -6 -10 -15 -22 -20 -17 -6 -18 -9 -6 -9 9 -1 24 6 32
15 19 18 20 24 6 24 -5 0 -10 -5 -10 -10z"/>
<path d="M505 3150 c-3 -6 1 -7 9 -4 18 7 21 14 7 14 -6 0 -13 -4 -16 -10z"/>
<path d="M4156 3134 c-3 -9 -6 -17 -6 -18 0 -1 15 0 33 2 17 2 63 -4 101 -12
38 -9 70 -15 72 -13 12 12 -25 32 -82 43 -91 17 -111 17 -118 -2z"/>
<path d="M4556 3131 c-4 -5 3 -7 14 -4 23 6 26 13 6 13 -8 0 -17 -4 -20 -9z"/>
<path d="M856 3091 c-7 -11 132 -136 141 -127 8 7 -26 45 -89 97 -25 22 -49
35 -52 30z"/>
<path d="M4718 3073 c6 -2 18 -2 25 0 6 3 1 5 -13 5 -14 0 -19 -2 -12 -5z"/>
<path d="M470 3041 c0 -9 30 -24 36 -18 2 1 -6 8 -16 15 -11 7 -20 8 -20 3z"/>
<path d="M596 3035 c4 -8 8 -15 10 -15 2 0 4 7 4 15 0 8 -4 15 -10 15 -5 0 -7
-7 -4 -15z"/>
<path d="M4187 3043 c-13 -12 -7 -21 11 -17 9 3 56 -6 104 -20 62 -17 85 -20
81 -11 -6 16 -17 21 -99 40 -73 17 -88 18 -97 8z"/>
<path d="M4710 3016 c0 -2 7 -6 15 -10 8 -3 15 -1 15 4 0 6 -7 10 -15 10 -8 0
-15 -2 -15 -4z"/>
<path d="M820 2985 c0 -5 149 -125 156 -125 17 0 -6 26 -65 74 -62 50 -91 66
-91 51z"/>
<path d="M4610 2969 c0 -5 11 -9 25 -9 14 0 25 2 25 4 0 2 -11 6 -25 8 -14 3
-25 1 -25 -3z"/>
<path d="M587 2946 c-3 -8 -16 -16 -29 -19 -21 -4 -21 -4 -2 -6 21 -1 52 24
42 35 -3 3 -8 -2 -11 -10z"/>
<path d="M4212 2939 c-9 -14 -9 -17 1 -13 12 4 124 -28 180 -51 17 -7 18 -6 6
12 -7 12 -29 26 -48 32 -138 42 -126 41 -139 20z"/>
<path d="M1950 2920 c0 -5 5 -10 10 -10 6 0 10 5 10 10 0 6 -4 10 -10 10 -5 0
-10 -4 -10 -10z"/>
<path d="M4750 2916 c0 -9 -10 -21 -22 -26 l-23 -9 22 0 c21 -1 42 33 29 46
-3 4 -6 -1 -6 -11z"/>
<path d="M807 2873 c-3 -4 33 -34 79 -66 75 -52 98 -62 76 -32 -10 14 -118 94
-136 101 -8 3 -16 2 -19 -3z"/>
<path d="M4623 2873 c9 -2 23 -2 30 0 6 3 -1 5 -18 5 -16 0 -22 -2 -12 -5z"/>
<path d="M4226 2844 c-3 -9 1 -14 12 -14 9 0 54 -15 100 -34 55 -22 82 -29 82
-21 0 14 1 13 -112 55 -63 24 -77 26 -82 14z"/>
<path d="M543 2833 c9 -2 23 -2 30 0 6 3 -1 5 -18 5 -16 0 -22 -2 -12 -5z"/>
<path d="M4748 2793 c7 -3 16 -2 19 1 4 3 -2 6 -13 5 -11 0 -14 -3 -6 -6z"/>
<path d="M556 2777 c3 -10 9 -15 12 -12 3 3 0 11 -7 18 -10 9 -11 8 -5 -6z"/>
<path d="M790 2769 c0 -8 37 -36 83 -63 104 -63 101 -62 90 -43 -5 9 -33 32
-63 50 -30 18 -67 41 -82 51 -22 14 -28 15 -28 5z"/>
<path d="M440 2760 c0 -5 5 -10 11 -10 5 0 7 5 4 10 -3 6 -8 10 -11 10 -2 0
-4 -4 -4 -10z"/>
<path d="M4247 2743 c-3 -5 35 -27 84 -50 67 -31 89 -38 89 -27 0 9 -31 29
-76 50 -79 36 -90 39 -97 27z"/>
<path d="M4755 2730 c3 -5 8 -10 11 -10 2 0 4 5 4 10 0 6 -5 10 -11 10 -5 0
-7 -4 -4 -10z"/>
<path d="M4640 2706 c0 -10 8 -16 22 -16 12 0 19 1 17 3 -2 1 -12 9 -21 16
-15 12 -18 11 -18 -3z"/>
<path d="M561 2688 c-1 -11 -14 -21 -33 -27 -31 -9 -31 -9 -7 -10 29 -1 54 21
46 41 -4 8 -6 7 -6 -4z"/>
<path d="M781 2646 c-9 -11 -9 -14 1 -13 7 1 51 -18 97 -41 102 -53 103 -33 0
25 -84 48 -83 48 -98 29z"/>
<path d="M4245 2640 c-3 -5 0 -10 7 -10 7 0 49 -20 92 -45 44 -25 81 -45 82
-45 2 0 1 7 -3 16 -3 8 -41 33 -84 55 -88 44 -85 43 -94 29z"/>
<path d="M4746 2614 c-17 -12 -17 -14 -4 -14 9 0 20 5 23 11 11 17 2 18 -19 3z"/>
<path d="M4643 2603 c9 -2 23 -2 30 0 6 3 -1 5 -18 5 -16 0 -22 -2 -12 -5z"/>
<path d="M533 2563 c9 -2 23 -2 30 0 6 3 -1 5 -18 5 -16 0 -22 -2 -12 -5z"/>
<path d="M2181 2554 c0 -11 3 -14 6 -6 3 7 2 16 -1 19 -3 4 -6 -2 -5 -13z"/>
<path d="M786 2541 c-3 -4 31 -25 77 -46 110 -50 107 -49 107 -36 0 6 -39 29
-86 51 -98 45 -91 43 -98 31z"/>
<path d="M4250 2541 c0 -4 36 -31 81 -60 56 -35 79 -46 77 -34 -2 9 -34 36
-73 60 -71 44 -85 50 -85 34z"/>
<path d="M555 2500 c3 -5 8 -10 11 -10 2 0 4 5 4 10 0 6 -5 10 -11 10 -5 0 -7
-4 -4 -10z"/>
<path d="M430 2480 c0 -6 7 -13 15 -17 24 -9 27 1 5 15 -13 8 -20 8 -20 2z"/>
<path d="M4756 2445 c4 -8 8 -15 10 -15 2 0 4 7 4 15 0 8 -4 15 -10 15 -5 0
-7 -7 -4 -15z"/>
<path d="M4235 2440 c-3 -5 -2 -10 3 -10 6 0 44 -25 86 -55 43 -30 76 -48 76
-41 0 12 -138 116 -154 116 -2 0 -8 -4 -11 -10z"/>
<path d="M794 2427 c-8 -9 2 -16 40 -28 28 -9 75 -26 103 -37 51 -21 52 -21
41 -2 -10 15 -44 31 -168 77 -3 1 -10 -3 -16 -10z"/>
<path d="M2179 2348 c0 -51 -2 -106 -4 -123 -2 -16 -6 -50 -9 -75 -3 -25 -9
-60 -12 -77 -5 -25 -2 -34 10 -39 11 -4 13 -11 6 -24 -5 -9 -7 -20 -4 -23 3
-3 7 -38 9 -77 2 -40 6 -74 9 -77 3 -3 6 132 6 301 -1 168 -3 306 -5 306 -3 0
-5 -42 -6 -92z m1 -288 c0 -11 -4 -20 -10 -20 -5 0 -10 9 -10 20 0 11 5 20 10
20 6 0 10 -9 10 -20z"/>
<path d="M4640 2430 c0 -6 7 -10 15 -10 8 0 15 2 15 4 0 2 -7 6 -15 10 -8 3
-15 1 -15 -4z"/>
<path d="M571 2423 c-1 -6 -8 -19 -17 -27 -8 -9 -11 -16 -6 -16 15 0 34 28 29
42 -4 9 -6 9 -6 1z"/>
<path d="M448 2373 c7 -3 16 -2 19 1 4 3 -2 6 -13 5 -11 0 -14 -3 -6 -6z"/>
<path d="M4756 2355 c-3 -8 -16 -20 -28 -25 l-23 -9 22 0 c20 -1 51 34 40 45
-2 3 -7 -2 -11 -11z"/>
<path d="M4230 2338 c0 -7 17 -25 38 -40 20 -15 54 -42 75 -59 27 -23 37 -27
37 -15 0 9 -26 36 -57 61 -74 59 -93 70 -93 53z"/>
<path d="M807 2316 c-4 -11 -1 -16 11 -16 10 0 57 -13 104 -29 61 -21 85 -25
81 -16 -2 8 -41 26 -86 41 -45 15 -87 29 -93 31 -6 2 -14 -3 -17 -11z"/>
<path d="M450 2309 c0 -5 5 -7 10 -4 6 3 10 8 10 11 0 2 -4 4 -10 4 -5 0 -10
-5 -10 -11z"/>
<path d="M548 2293 c6 -2 18 -2 25 0 6 3 1 5 -13 5 -14 0 -19 -2 -12 -5z"/>
<path d="M570 2246 c0 -2 7 -6 15 -10 8 -3 15 -1 15 4 0 6 -7 10 -15 10 -8 0
-15 -2 -15 -4z"/>
<path d="M4207 2243 c-2 -5 32 -39 75 -76 92 -80 105 -72 17 11 -67 63 -86 76
-92 65z"/>
<path d="M828 2209 c-3 -10 22 -20 86 -36 111 -27 123 -28 107 -9 -7 8 -42 21
-79 30 -37 8 -77 18 -88 22 -14 3 -23 1 -26 -7z"/>
<path d="M470 2199 c0 -13 14 -17 35 -9 17 6 16 7 -8 12 -15 3 -27 2 -27 -3z"/>
<path d="M4600 2170 c0 -5 5 -10 11 -10 5 0 7 5 4 10 -3 6 -8 10 -11 10 -2 0
-4 -4 -4 -10z"/>
<path d="M4716 2165 c4 -8 8 -15 10 -15 2 0 4 7 4 15 0 8 -4 15 -10 15 -5 0
-7 -7 -4 -15z"/>
<path d="M611 2158 c0 -9 -11 -24 -23 -32 -17 -12 -18 -16 -6 -16 22 0 41 25
35 47 -4 16 -5 16 -6 1z"/>
<path d="M1912 2120 c0 -19 2 -27 5 -17 2 9 2 25 0 35 -3 9 -5 1 -5 -18z"/>
<path d="M4187 2143 c-3 -5 25 -41 63 -78 39 -38 70 -63 70 -54 0 19 -126 144
-133 132z"/>
<path d="M523 2103 c9 -2 23 -2 30 0 6 3 -1 5 -18 5 -16 0 -22 -2 -12 -5z"/>
<path d="M850 2090 c-6 -12 -9 -24 -6 -28 3 -3 6 0 6 6 0 19 49 15 187 -14 16
-3 21 0 17 10 -3 7 -34 18 -72 25 -37 6 -79 14 -94 17 -20 5 -29 1 -38 -16z"/>
<path d="M1910 1967 c0 -184 -24 -253 -103 -294 -17 -8 -39 -25 -49 -37 -9
-11 -17 -17 -18 -12 0 5 -7 3 -15 -4 -11 -9 -15 -9 -15 -1 0 7 -5 9 -12 5 -6
-4 -26 -7 -45 -6 -18 1 -33 -3 -33 -8 0 -6 106 -10 282 -10 155 0 279 2 276 5
-3 3 -39 6 -81 7 -43 0 -77 5 -77 11 0 5 -9 7 -20 4 -11 -3 -20 0 -20 6 0 9
-2 9 -8 0 -12 -19 -28 -1 -39 44 -9 36 -8 42 8 46 17 5 20 29 6 43 -4 4 -7 15
-7 25 0 9 -6 20 -12 22 -9 4 -9 8 -3 14 6 4 16 18 22 30 11 19 10 21 -2 17
-11 -4 -15 1 -17 17 -4 65 -2 89 6 89 5 0 4 6 -1 13 -6 6 -11 27 -11 46 0 18
-3 36 -6 39 -3 3 -6 -47 -6 -111z"/>
<path d="M4680 2063 c-24 -12 -24 -13 -3 -13 12 0 25 5 28 11 11 16 2 17 -25
2z"/>
<path d="M515 2039 c-4 -6 -5 -12 -2 -15 2 -3 7 2 10 11 7 17 1 20 -8 4z"/>
<path d="M4150 2044 c0 -4 17 -25 38 -48 20 -22 49 -56 63 -75 15 -18 29 -29
32 -24 7 11 -108 153 -123 153 -6 0 -10 -3 -10 -6z"/>
<path d="M628 2033 c6 -2 18 -2 25 0 6 3 1 5 -13 5 -14 0 -19 -2 -12 -5z"/>
<path d="M892 2005 c4 -4 2 -15 -5 -23 -10 -13 -9 -15 4 -10 9 4 60 1 112 -6
91 -12 96 -11 82 4 -11 12 -40 19 -91 24 -41 4 -82 10 -92 13 -9 3 -14 3 -10
-2z"/>
<path d="M645 1980 c3 -5 8 -10 11 -10 2 0 4 5 4 10 0 6 -5 10 -11 10 -5 0 -7
-4 -4 -10z"/>
<path d="M1940 1950 c0 -5 5 -10 11 -10 5 0 7 5 4 10 -3 6 -8 10 -11 10 -2 0
-4 -4 -4 -10z"/>
<path d="M4117 1954 c-3 -5 20 -42 51 -83 31 -40 58 -68 60 -61 7 20 -101 160
-111 144z"/>
<path d="M540 1918 c0 -11 32 -10 48 1 9 5 3 8 -17 7 -17 -1 -31 -4 -31 -8z"/>
<path d="M4520 1910 c0 -5 5 -10 11 -10 5 0 7 5 4 10 -3 6 -8 10 -11 10 -2 0
-4 -4 -4 -10z"/>
<path d="M4637 1889 c4 -15 8 -17 14 -8 8 14 3 29 -11 29 -4 0 -6 -9 -3 -21z"/>
<path d="M668 1868 c-30 -31 -22 -38 12 -10 13 10 21 23 19 28 -2 5 -16 -3
-31 -18z"/>
<path d="M926 1885 c-3 -9 -6 -17 -6 -18 0 -1 52 -2 115 -2 143 0 139 19 -6
29 -84 6 -97 5 -103 -9z"/>
<path d="M4070 1864 c0 -14 102 -164 112 -164 11 0 -4 29 -53 102 -38 55 -59
77 -59 62z"/>
<path d="M573 1820 c-18 -11 -33 -23 -33 -26 0 -4 6 -2 13 4 7 7 29 18 48 26
19 9 27 15 19 16 -8 0 -30 -9 -47 -20z"/>
<path d="M2085 1800 c3 -5 10 -10 16 -10 5 0 9 5 9 10 0 6 -7 10 -16 10 -8 0
-12 -4 -9 -10z"/>
<path d="M4600 1794 c-24 -13 -24 -14 -4 -14 12 0 24 7 28 15 3 8 4 15 3 14
-1 -1 -13 -7 -27 -15z"/>
<path d="M715 1784 c-46 -24 -55 -39 -10 -16 22 10 47 22 55 25 13 5 13 6 0 6
-8 1 -28 -6 -45 -15z"/>
<path d="M978 1783 c-4 -17 5 -18 110 -15 101 3 112 5 96 17 -13 10 -48 14
-110 15 -79 0 -92 -2 -96 -17z"/>
<path d="M2132 1794 c10 -9 58 -12 58 -3 0 5 -14 9 -32 9 -17 0 -29 -3 -26 -6z"/>
<path d="M4027 1774 c-7 -12 84 -175 95 -168 4 3 -3 26 -17 52 -40 78 -72 125
-78 116z"/>
<path d="M730 1736 c0 -2 7 -6 15 -10 8 -3 15 -1 15 4 0 6 -7 10 -15 10 -8 0
-15 -2 -15 -4z"/>
<path d="M1073 1703 c-29 -3 -43 -9 -43 -19 0 -10 7 -13 23 -9 12 3 64 6 114
8 77 2 90 4 76 15 -16 11 -75 13 -170 5z"/>
<path d="M3970 1688 c0 -25 82 -185 87 -170 5 13 -44 126 -72 164 -12 18 -15
19 -15 6z"/>
<path d="M685 1671 c-11 -5 -26 -6 -34 -3 -9 3 -12 1 -7 -6 10 -16 28 -15 52
3 21 16 19 17 -11 6z"/>
<path d="M4420 1671 c0 -6 4 -13 10 -16 6 -3 7 1 4 9 -7 18 -14 21 -14 7z"/>
<path d="M790 1630 c-6 -11 -36 -32 -66 -45 -29 -13 -54 -29 -54 -36 0 -8 5
-7 18 3 9 8 38 25 64 37 25 12 49 29 52 38 10 25 -1 27 -14 3z"/>
<path d="M4530 1631 c0 -25 6 -27 13 -6 4 8 2 17 -3 20 -6 4 -10 -3 -10 -14z"/>
<path d="M1165 1616 c-50 -8 -71 -15 -73 -27 -2 -14 6 -14 75 -2 43 8 97 13
121 11 23 -2 42 -2 42 -1 0 1 -13 9 -30 18 -33 17 -37 17 -135 1z"/>
<path d="M3914 1583 c49 -130 76 -180 76 -138 0 23 -62 155 -72 155 -6 0 -7
-8 -4 -17z"/>
<path d="M833 1539 c-18 -12 -33 -23 -33 -26 0 -2 15 4 33 15 17 11 39 22 47
25 13 5 13 5 0 6 -8 0 -30 -9 -47 -20z"/>
<path d="M1260 1535 c-30 -7 -66 -14 -80 -14 -20 -1 -26 -7 -28 -26 -2 -24 0
-24 21 -11 12 7 51 19 87 25 36 7 74 15 86 17 12 3 28 -2 38 -11 9 -9 16 -12
16 -6 0 12 -53 42 -72 40 -7 -1 -38 -7 -68 -14z"/>
<path d="M4475 1540 c-16 -7 -17 -9 -3 -9 9 -1 20 4 23 9 7 11 7 11 -20 0z"/>
<path d="M735 1519 c-4 -6 -5 -12 -2 -15 2 -3 7 2 10 11 7 17 1 20 -8 4z"/>
<path d="M3843 1518 c3 -7 18 -50 33 -95 16 -46 32 -83 36 -83 12 0 10 10 -16
86 -33 96 -37 104 -48 104 -5 0 -7 -6 -5 -12z"/>
<path d="M870 1500 c-13 -8 -12 -10 3 -10 9 0 17 5 17 10 0 12 -1 12 -20 0z"/>
<path d="M1305 1451 c-66 -16 -70 -19 -73 -47 -2 -25 -1 -27 10 -13 20 25 185
63 214 50 13 -6 24 -8 24 -5 0 8 -68 34 -87 33 -10 -1 -49 -9 -88 -18z"/>
<path d="M3780 1445 c-1 -41 43 -186 53 -176 7 7 3 36 -12 88 -26 89 -40 120
-41 88z"/>
<path d="M4281 1434 c0 -11 3 -14 6 -6 3 7 2 16 -1 19 -3 4 -6 -2 -5 -13z"/>
<path d="M835 1430 c-3 -5 -17 -10 -31 -10 -14 0 -22 -4 -19 -10 3 -5 10 -10
14 -10 11 0 59 39 49 40 -4 0 -10 -4 -13 -10z"/>
<path d="M937 1409 c-4 -17 -25 -38 -56 -58 -27 -18 -52 -38 -55 -46 -3 -8 22
7 55 32 62 47 74 62 67 85 -3 7 -8 1 -11 -13z"/>
<path d="M1383 1372 c-62 -20 -83 -31 -83 -44 0 -16 3 -16 47 3 25 11 78 28
116 38 56 14 65 19 46 24 -31 9 -31 9 -126 -21z"/>
<path d="M3700 1375 c0 -3 6 -34 14 -68 8 -34 17 -74 21 -89 3 -16 10 -28 16
-28 6 0 8 8 6 18 -3 9 -13 52 -22 95 -9 42 -21 77 -26 77 -5 0 -9 -2 -9 -5z"/>
<path d="M988 1319 c-24 -23 -26 -27 -8 -15 14 9 39 23 55 31 27 13 27 14 8
15 -13 0 -37 -14 -55 -31z"/>
<path d="M1458 1299 c-54 -21 -75 -34 -72 -44 5 -12 14 -11 52 4 26 11 67 27
92 36 59 24 71 35 35 34 -17 0 -65 -14 -107 -30z"/>
<path d="M3628 1314 c-3 -5 0 -45 8 -89 7 -44 13 -87 13 -94 1 -11 4 -12 12
-4 8 8 8 31 -1 85 -14 83 -24 115 -32 102z"/>
<path d="M4330 1304 c-17 -9 -20 -14 -9 -14 9 0 22 7 29 15 15 18 13 18 -20
-1z"/>
<path d="M886 1283 c-6 -14 -5 -15 5 -6 7 7 10 15 7 18 -3 3 -9 -2 -12 -12z"/>
<path d="M1130 1255 c13 -14 26 -25 28 -25 3 0 -5 11 -18 25 -13 14 -26 25
-28 25 -3 0 5 -11 18 -25z"/>
<path d="M1548 1232 c-43 -20 -78 -42 -78 -49 0 -7 2 -13 4 -13 2 0 50 22 107
50 79 37 97 49 74 49 -16 -1 -65 -17 -107 -37z"/>
<path d="M3545 1203 c12 -120 17 -143 26 -143 6 0 8 14 5 33 -3 17 -8 62 -11
100 -4 37 -11 67 -17 67 -6 0 -7 -22 -3 -57z"/>
<path d="M991 1206 c-14 -8 -32 -11 -40 -8 -14 5 -14 3 -2 -11 14 -18 36 -12
61 17 15 19 12 19 -19 2z"/>
<path d="M1107 1199 c-4 -15 -27 -43 -52 -63 -25 -21 -45 -43 -45 -51 0 -7 25
13 56 45 36 38 54 65 52 77 -3 14 -5 12 -11 -8z"/>
<path d="M1625 1165 c-44 -25 -74 -45 -67 -45 7 0 10 -4 7 -10 -10 -16 3 -12
47 16 23 15 69 40 102 55 59 28 60 29 26 28 -22 0 -65 -17 -115 -44z"/>
<path d="M3460 1106 c0 -57 4 -96 10 -96 6 0 10 36 10 89 0 50 -4 93 -10 96
-6 4 -10 -28 -10 -89z"/>
<path d="M4216 1163 c-6 -14 -5 -15 5 -6 7 7 10 15 7 18 -3 3 -9 -2 -12 -12z"/>
<path d="M1202 1147 c-12 -7 -30 -24 -39 -37 -14 -22 -13 -22 18 5 19 16 38
33 44 37 14 12 3 9 -23 -5z"/>
<path d="M1775 1144 c-11 -9 -44 -29 -72 -46 -29 -16 -53 -36 -53 -44 0 -8 2
-14 5 -14 2 0 42 24 87 54 46 30 94 56 108 59 17 3 12 5 -15 5 -22 1 -49 -5
-60 -14z"/>
<path d="M3370 1120 c0 -19 -3 -65 -7 -102 -4 -44 -2 -68 4 -68 15 0 28 179
14 193 -8 8 -11 1 -11 -23z"/>
<path d="M1305 1090 c10 -11 20 -20 23 -20 3 0 -3 9 -13 20 -10 11 -20 20 -23
20 -3 0 3 -9 13 -20z"/>
<path d="M1830 1069 c-30 -22 -61 -44 -69 -48 -8 -5 -11 -14 -7 -20 5 -8 29 3
74 35 37 26 74 53 82 60 12 12 12 14 -5 14 -11 -1 -45 -19 -75 -41z"/>
<path d="M3282 1098 c-14 -19 -26 -178 -13 -178 6 0 11 3 12 8 3 24 14 182 13
182 -1 0 -6 -6 -12 -12z"/>
<path d="M1215 1090 c-3 -5 1 -10 10 -10 9 0 13 5 10 10 -3 6 -8 10 -10 10 -2
0 -7 -4 -10 -10z"/>
<path d="M4135 1090 c-16 -7 -17 -9 -3 -9 9 -1 20 4 23 9 7 11 7 11 -20 0z"/>
<path d="M1082 1070 c0 -14 2 -19 5 -12 2 6 2 18 0 25 -3 6 -5 1 -5 -13z"/>
<path d="M1918 1017 c-45 -36 -74 -65 -68 -71 5 -5 44 21 95 63 51 42 79 71
68 71 -10 -1 -53 -29 -95 -63z"/>
<path d="M3168 973 c-8 -54 -13 -100 -11 -102 8 -11 17 14 29 81 15 87 17 118
6 118 -5 0 -16 -44 -24 -97z"/>
<path d="M2016 976 c-44 -39 -65 -65 -58 -70 7 -4 41 22 84 63 91 87 68 93
-26 7z"/>
<path d="M3093 1028 c-9 -11 -43 -146 -43 -169 0 -5 4 -9 9 -9 8 0 20 44 46
173 4 20 1 21 -12 5z"/>
<path d="M1303 1008 c-1 -11 -15 -35 -31 -52 -16 -17 -35 -42 -42 -56 -10 -22
-9 -22 14 5 53 62 79 106 70 115 -6 6 -10 2 -11 -12z"/>
<path d="M1189 1004 c-7 -9 -21 -13 -32 -10 -18 5 -19 4 -5 -11 18 -17 33 -12
48 18 13 23 7 25 -11 3z"/>
<path d="M2122 946 c-41 -40 -71 -76 -65 -79 5 -3 45 30 88 74 44 43 73 79 66
79 -7 0 -47 -33 -89 -74z"/>
<path d="M2995 1010 c-7 -11 -54 -170 -55 -182 0 -5 4 -8 9 -8 7 0 39 100 55
173 6 27 2 35 -9 17z"/>
<path d="M1386 959 c-14 -17 -26 -36 -26 -42 0 -6 11 5 25 25 14 20 35 39 47
41 22 4 22 4 1 6 -13 0 -32 -11 -47 -30z"/>
<path d="M2220 918 c-40 -47 -58 -74 -49 -77 12 -4 44 28 111 112 20 25 25 37
15 37 -8 0 -42 -32 -77 -72z"/>
<path d="M2891 976 c-20 -23 -62 -159 -52 -169 5 -5 19 23 34 65 42 118 45
137 18 104z"/>
<path d="M2331 903 c-33 -43 -57 -82 -54 -87 7 -10 31 17 94 107 59 84 30 69
-40 -20z"/>
<path d="M2793 968 c-12 -14 -73 -158 -73 -170 0 -5 4 -8 8 -8 5 0 25 41 46
91 35 87 41 115 19 87z"/>
<path d="M4010 964 c0 -8 5 -12 10 -9 6 4 8 11 5 16 -9 14 -15 11 -15 -7z"/>
<path d="M2488 958 c-8 -7 -33 -40 -55 -73 -55 -84 -56 -85 -41 -85 7 0 34 33
59 73 54 83 62 97 57 97 -3 0 -11 -6 -20 -12z"/>
<path d="M2588 953 c-8 -10 -24 -35 -36 -55 -12 -21 -31 -53 -42 -72 -12 -19
-16 -37 -11 -40 5 -3 32 35 61 85 49 87 60 119 28 82z"/>
<path d="M2688 953 c-9 -10 -32 -51 -52 -90 -27 -55 -33 -73 -21 -73 8 0 31
35 55 86 41 86 47 110 18 77z"/>
<path d="M3930 900 c-23 -7 -23 -8 -3 -9 12 -1 25 4 28 9 3 6 5 10 3 9 -2 -1
-14 -5 -28 -9z"/>
<path d="M1293 881 c1 -13 13 -30 27 -39 l25 -14 -22 18 c-11 11 -24 28 -26
39 -5 16 -5 15 -4 -4z"/>
<path d="M1521 855 c-1 -11 -15 -40 -31 -65 -16 -25 -30 -49 -30 -55 0 -5 16
16 36 48 19 31 33 65 31 74 -4 15 -5 15 -6 -2z"/>
<path d="M1409 834 c-8 -10 -22 -14 -38 -11 -24 5 -25 4 -6 -9 26 -19 30 -18
49 11 18 28 16 34 -5 9z"/>
<path d="M1628 833 c-18 -21 -31 -43 -25 -43 2 0 13 14 25 30 25 33 24 41 0
13z"/>
<path d="M3786 793 c-6 -14 -5 -15 5 -6 7 7 10 15 7 18 -3 3 -9 -2 -12 -12z"/>
<path d="M1655 780 c-3 -6 1 -7 9 -4 18 7 21 14 7 14 -6 0 -13 -4 -16 -10z"/>
<path d="M3688 743 c6 -2 18 -2 25 0 6 3 1 5 -13 5 -14 0 -19 -2 -12 -5z"/>
<path d="M1530 733 c0 -5 10 -18 23 -29 l22 -19 -20 25 c-11 14 -21 27 -22 29
-2 2 -3 0 -3 -6z"/>
<path d="M1762 720 c0 -14 2 -19 5 -12 2 6 2 18 0 25 -3 6 -5 1 -5 -13z"/>
<path d="M1855 709 c-4 -6 -5 -12 -2 -15 2 -3 7 2 10 11 7 17 1 20 -8 4z"/>
<path d="M1636 679 c-16 -16 -17 -19 -4 -19 9 0 19 7 22 16 9 24 4 24 -18 3z"/>
<path d="M1732 645 c-17 -37 -14 -45 4 -12 9 16 14 31 11 33 -2 2 -9 -7 -15
-21z"/>
<path d="M3537 656 c-4 -10 -1 -13 8 -9 8 3 12 9 9 14 -7 12 -11 11 -17 -5z"/>
<path d="M2012 625 c0 -16 2 -22 5 -12 2 9 2 23 0 30 -3 6 -5 -1 -5 -18z"/>
<path d="M3437 609 c7 -7 15 -10 18 -7 3 3 -2 9 -12 12 -14 6 -15 5 -6 -5z"/>
<path d="M1780 601 c0 -6 4 -13 10 -16 6 -3 7 1 4 9 -7 18 -14 21 -14 7z"/>
<path d="M2160 599 c0 -5 5 -7 10 -4 6 3 10 8 10 11 0 2 -4 4 -10 4 -5 0 -10
-5 -10 -11z"/>
<path d="M2960 589 c0 -5 5 -7 10 -4 6 3 10 8 10 11 0 2 -4 4 -10 4 -5 0 -10
-5 -10 -11z"/>
<path d="M2277 569 c4 -13 8 -18 11 -10 2 7 -1 18 -6 23 -8 8 -9 4 -5 -13z"/>
<path d="M1886 564 c-17 -12 -17 -14 -4 -14 9 0 20 5 23 11 11 17 2 18 -19 3z"/>
<path d="M2420 559 c0 -5 5 -7 10 -4 6 3 10 8 10 11 0 2 -4 4 -10 4 -5 0 -10
-5 -10 -11z"/>
<path d="M3275 550 c-3 -5 -2 -10 4 -10 5 0 13 5 16 10 3 6 2 10 -4 10 -5 0
-13 -4 -16 -10z"/>
<path d="M2145 490 l-30 -6 28 -6 c15 -3 30 -1 33 4 9 13 3 15 -31 8z"/>
<path d="M3002 485 c-11 -12 -10 -15 3 -15 8 0 15 7 15 15 0 18 -2 18 -18 0z"/>
<path d="M2886 466 c4 -10 16 -16 33 -15 20 1 22 2 6 6 -11 3 -26 10 -33 15
-9 8 -11 7 -6 -6z"/>
<path d="M2332 454 c9 -9 21 -15 27 -13 6 2 -2 10 -17 17 -25 11 -25 11 -10
-4z"/>
<path d="M2442 455 c-11 -12 -10 -15 3 -15 8 0 15 7 15 15 0 18 -2 18 -18 0z"/>
<path d="M2716 444 c-17 -12 -17 -14 -4 -14 9 0 20 5 23 11 11 17 2 18 -19 3z"/>
<path d="M2638 433 c6 -2 18 -2 25 0 6 3 1 5 -13 5 -14 0 -19 -2 -12 -5z"/>
</g>
</svg>
